<svg width="16" height="16" viewBox="0 0 16 16" xmlns="http://www.w3.org/2000/svg"><g fill-rule="evenodd"><path d="M3.7 10s-.2 0-.3-.2c-.5-.5-.5-1-.2-1.4C3.5 8 4 8 4.5 8c0 .2.2.2.3.3 2 1.2 4.4 1.3 6.3 0 .3 0 .5-.2.7-.3.5 0 1 0 1 .5.4.4.4.8 0 1-.5.7-1 1-1.8 1.3L9 11l3 3.3c.3.3.3.7.2 1-.2.5-.7.7-1 .7-.4 0-.6-.2-.8-.3L8 13l-2.5 2.7c-.3.3-.7.4-1 .2-.5-.3-.7-.7-.7-1 0-.4 0-.6.3-.8L7 11c-1.5 0-2.6-.5-3.3-1z"/><path d="M8 8c2.2 0 4-1.8 4-4s-1.8-4-4-4-4 1.8-4 4 1.8 4 4 4zm0-2c1 0 2-1 2-2S9 2 8 2 6 3 6 4s1 2 2 2z"/></g></svg>